<svg xmlns="http://www.w3.org/2000/svg" viewBox="0 0 64 64">
    <path fill="currentColor"
          d="m41.478 7.967-.033 3.069c1.887.02 3.772.337 5.561.933l.97-2.913a21.337 21.337 0 0 0-6.498-1.09Zm-3.294.215a21.567 21.567 0 0 0-6.298 1.915l1.332 2.766a18.518 18.518 0 0 1 5.401-1.641zm12.836 2.155-1.402 2.73a18.497 18.497 0 0 1 4.572 3.312l2.16-2.179a21.548 21.548 0 0 0-5.331-3.863ZM22.783 13.06c-11.848 0-21.486 9.638-21.486 21.486 0 11.849 9.638 21.486 21.486 21.486a21.37 21.37 0 0 0 14.288-5.466c.003 0 .006 0 .009.002.04-.036.078-.075.117-.11l.077-.072a21.285 21.285 0 0 0 1.51-1.532 22.128 22.128 0 0 0 .867-1.025 19.557 19.557 0 0 1-.88-.095c-.196-.025-.389-.058-.582-.09-.097-.015-.194-.028-.29-.045a18.378 18.378 0 0 1-1.576-.359l-.118-.03c-7.753-2.172-13.422-9.271-13.422-17.728a18.34 18.34 0 0 1 5.867-13.478c.1-.093.199-.185.3-.276.153-.136.31-.268.467-.4.097-.08.193-.163.291-.242.255-.203.514-.402.78-.592a21.534 21.534 0 0 0-1.76-.592l-.018-.005c-.176-.05-.355-.095-.533-.141-.132-.035-.263-.073-.397-.105-.213-.051-.43-.095-.646-.14-.077-.016-.153-.035-.231-.05H26.9a21.37 21.37 0 0 0-4.118-.4Zm35.728 3.64-2.472 1.82a18.424 18.424 0 0 1 2.61 5.004l2.907-.986a21.474 21.474 0 0 0-3.045-5.839Zm3.864 9.034-3.022.534c.328 1.86.37 3.772.118 5.642l3.042.409a21.448 21.448 0 0 0-.138-6.585zm-3.496 8.943a18.539 18.539 0 0 1-2.416 5.104l2.543 1.72a21.586 21.586 0 0 0 2.815-5.952zM54.703 42a18.288 18.288 0 0 1-4.428 3.492l1.505 2.675a21.348 21.348 0 0 0 5.173-4.08zm-6.995 4.69a18.512 18.512 0 0 1-5.526 1.158l.163 3.065a21.56 21.56 0 0 0 6.444-1.35z"/>
</svg>
