<svg xmlns="http://www.w3.org/2000/svg" viewBox="0 0 64 64">
    <path fill="currentColor"
          d="M31.226 17.87c-4.69 0-8.532 3.832-8.532 8.508 0 1.812.58 3.495 1.558 4.88l5.932 10.255c.831 1.085 1.383.879 2.074-.058l6.543-11.135c.132-.24.236-.493.327-.753a8.396 8.396 0 0 0 .628-3.19c0-4.675-3.841-8.506-8.53-8.506zm0 3.987a4.5 4.5 0 0 1 4.532 4.52 4.5 4.5 0 0 1-4.532 4.521 4.5 4.5 0 0 1-4.534-4.52 4.5 4.5 0 0 1 4.533-4.52z"/>
    <path fill="none" stroke="currentColor" stroke-linecap="round" stroke-linejoin="round" stroke-miterlimit="6"
          stroke-width="5" d="M8.97 53.509 4.423 19.145 35.698 4.199l23.88 25.127L43.06 59.801Z"/>
</svg>
