<svg xmlns="http://www.w3.org/2000/svg" viewBox="0 0 64 64">
    <ellipse cx="4.907" cy="-32.051" fill="none" stroke="currentColor" stroke-dasharray="13.7543, 6.87718"
             stroke-width="5.489" rx="20.4" ry="13.713" transform="matrix(-.71127 .70292 -.86047 -.5095 0 0)"/>
    <path fill="currentColor"
          d="M34.597 25.275a1.934 1.934 0 0 0-2.04 2.165l2.922 31.37c.188 1.523 1.989 2.235 3.165 1.249l6.169-5.004 2.765 4.79c1.59 2.756 4.115 3.431 6.87 1.841 2.756-1.59 3.433-4.114 1.841-6.87l-2.755-4.773 7.31-2.803c1.443-.525 1.728-2.44.503-3.365L35.64 25.66a1.93 1.93 0 0 0-1.042-.383z"/>
</svg>
