<svg xmlns="http://www.w3.org/2000/svg" viewBox="0 0 64 64">
    <path fill="currentColor"
          d="M1.947 25.554c-2.176 3.77-.867 8.656 2.903 10.832 2.126 1.229 4.607 1.346 6.757.539l8.252 12.152a7.79 7.79 0 0 0-.701 1.005c-2.176 3.77-.867 8.656 2.903 10.833 3.77 2.177 8.655.867 10.832-2.903 2.1-3.64.93-8.294-2.543-10.572a2.211 2.211 0 0 0-.36-.26 2.211 2.211 0 0 0-.404-.181 7.955 7.955 0 0 0-6.086-.432l-8.348-12.292c.19-.252.369-.512.53-.79 1.457-2.526 1.339-5.537-.03-7.907l8.202-8.256c3.494 1.335 7.562.025 9.575-3.229l13.899 2.913c.266 2.435 1.634 4.721 3.899 6.03 3.77 2.176 8.655.866 10.832-2.904 2.101-3.64.93-8.294-2.543-10.572a2.211 2.211 0 0 0-.36-.26 2.211 2.211 0 0 0-.403-.181c-3.71-1.87-8.328-.556-10.429 3.083-.084.147-.155.297-.228.446l-13.5-2.83c-.053-2.55-1.329-5.023-3.58-6.499a2.211 2.211 0 0 0-.358-.259 2.211 2.211 0 0 0-.405-.181c-3.708-1.87-8.326-.556-10.428 3.083-1.61 2.79-1.307 6.19.486 8.652l-7.84 7.892a2.211 2.211 0 0 0-.094-.036c-3.71-1.87-8.328-.556-10.429 3.084zm3.83 2.211a3.473 3.473 0 0 1 4.79-1.282 3.472 3.472 0 0 1 1.284 4.789 3.473 3.473 0 0 1-4.79 1.284 3.475 3.475 0 0 1-1.283-4.79ZM23.656 8.173a3.474 3.474 0 0 1 4.79-1.283 3.472 3.472 0 0 1 1.283 4.79 3.473 3.473 0 0 1-4.789 1.284 3.475 3.475 0 0 1-1.284-4.791zm-.666 44.12a3.474 3.474 0 0 1 4.79-1.283 3.472 3.472 0 0 1 1.283 4.79 3.473 3.473 0 0 1-4.79 1.284 3.475 3.475 0 0 1-1.283-4.791zm29.166-37.88a3.474 3.474 0 0 1 4.79-1.283 3.472 3.472 0 0 1 1.283 4.79 3.473 3.473 0 0 1-4.79 1.284 3.475 3.475 0 0 1-1.283-4.791z"/>
    <path fill="currentColor"
          d="M12.9 13.516c-.63.177-.685.37-.88.95l-1.069 3.18 2.995 1.006.844-2.506 2.074-.882-1.236-2.908zm19.209 5.25 4.378 4.554 2.277-2.19-4.379-4.554zm8.132 3.106 1.441 2.812 5.623-2.882-1.441-2.812zM5.448 46.082l3.144.304.608-6.29-3.145-.303zm4.623 3.728 5.762 2.592 1.297-2.88-5.762-2.593z"/>
</svg>
