<svg xmlns="http://www.w3.org/2000/svg" viewBox="0 0 64 64">
    <path fill="currentColor" fill-rule="evenodd"
          d="M19.435 3.417c-4.478 0-8.96 1.693-12.343 5.076-6.766 6.766-6.766 17.913 0 24.679h.006c2.754 2.749 5.563 5.561 8.357 8.357 1.857 1.859 3.696 3.696 5.553 5.553l.949.949 1.892 1.898 9.496-9.49-1.898-1.898-6.502-6.502c-2.796-2.797-5.6-5.606-8.363-8.362-1.65-1.653-1.652-4.042 0-5.694 1.653-1.653 4.047-1.653 5.7 0l8.357 8.362 6.502 6.502 1.898 1.893 9.49-9.49-1.893-1.893-6.507-6.502-8.357-8.362c-3.384-3.383-7.86-5.076-12.337-5.076Zm0 2.68c3.789 0 7.577 1.432 10.439 4.294l8.357 8.362-5.694 5.694-8.357-8.362a6.7 6.7 0 0 0-9.496 0 6.697 6.697 0 0 0 0 9.49c2.76 2.755 5.566 5.564 8.363 8.362l-5.694 5.694c-2.795-2.796-5.601-5.607-8.357-8.357H8.99c-5.724-5.724-5.724-15.16 0-20.883 2.861-2.862 6.655-4.294 10.444-4.294ZM57.709 29.03a4.266 4.266 0 0 0-4.268 4.268c0 1.594.881 2.973 2.176 3.707-.714 4.997-1.424 10.107-2.176 15.037-.934 0-1.792.309-2.495.818l-7.115-5.07a4.25 4.25 0 0 0 .115-.965 4.27 4.27 0 1 0-4.268 4.268 4.23 4.23 0 0 0 2.732-1.012l6.973 4.965a4.22 4.22 0 0 0-.215 1.269 4.27 4.27 0 0 0 4.273 4.268 4.266 4.266 0 0 0 4.268-4.268 4.247 4.247 0 0 0-1.657-3.356l2.208-15.446c2.095-.273 3.722-2.045 3.722-4.215a4.27 4.27 0 0 0-4.273-4.268z"
    />
</svg>
