<svg xmlns="http://www.w3.org/2000/svg" viewBox="0 0 64 64">
    <path fill="currentColor"
          d="M41.233 7.917c-5.5 0-10.519 2.077-14.328 5.482a21.443 21.443 0 0 0-4.138-.404c-11.88 0-21.544 9.664-21.544 21.544s9.664 21.544 21.544 21.544c5.5 0 10.519-2.077 14.328-5.482 1.34.263 2.722.404 4.138.404 11.88 0 21.544-9.664 21.544-21.544S53.113 7.917 41.233 7.917zm-9.969 6.791a21.61 21.61 0 0 1 5.598 3.499l-2.01 2.33a18.557 18.557 0 0 0-4.8-2.999Zm-7.927 2.765 2.557 1.714a18.558 18.558 0 0 0-2.396 5.128l-2.955-.86a21.614 21.614 0 0 1 2.794-5.982zm15.86 3.08a21.413 21.413 0 0 1 3.46 5.628l-2.839 1.188a18.357 18.357 0 0 0-2.963-4.817zm-19.334 6.142 3.053.399a18.348 18.348 0 0 0 .144 5.654l-3.027.552a21.407 21.407 0 0 1-.17-6.605Zm23.834 2.63a21.81 21.81 0 0 1 .548 3.263c.1 1.1.115 2.207.044 3.31l-3.07-.195c.12-1.888-.056-3.8-.511-5.64zm-19.918 6.172a18.37 18.37 0 0 0 2.64 5.003l-2.466 1.84a21.427 21.427 0 0 1-3.083-5.84Zm17.042 3.016 3.004.666a21.486 21.486 0 0 1-2.404 6.15l-2.66-1.547a18.434 18.434 0 0 0 2.06-5.27zm-12.535 4.124a18.554 18.554 0 0 0 4.6 3.302l-1.392 2.744a21.611 21.611 0 0 1-5.363-3.85Z"/>
</svg>
