<svg xmlns="http://www.w3.org/2000/svg" viewBox="0 0 64 64">
    <path fill="currentColor"
          d="M1.585 1.585V13.75h5.17v1.52H8.58v-1.52h5.17V1.585Zm3.041 3.041h6.083v6.083H4.626Zm9.429 2.13V8.58h3.65V6.755Zm5.475 0V8.58h3.65V6.755Zm5.474 0V8.58h3.65V6.755Zm5.475 0V8.58h3.65V6.755Zm5.475 0V8.58h3.65V6.755Zm5.475 0v1.597a1.521 1.521 0 0 0-.325.152l-15.686 9.758a1.52 1.52 0 0 0-.199 2.437l23.512 20.553a1.52 1.52 0 0 0 2.477-.78l4.212-17.037v.352h1.825v-3.65H55.42v1.524a1.52 1.52 0 0 0-.222-.296L43.002 8.741a1.521 1.521 0 0 0-.182-.16h2.259V6.754Zm5.475 0V8.58h3.65V6.755Zm5.474 0V8.58h3.65V6.755Zm3.042 2.432v3.65h1.825v-3.65Zm-13.752 2.549 10.757 11.137-3.57 14.446-20.087-17.559Zm13.752 2.926v3.65h1.825v-3.65ZM6.755 17.096v3.65H8.58v-3.65zm0 5.475v3.65h1.628a1.52 1.52 0 0 0 1.02.909l12.683 3.406 7.905 12.694c.168.27.417.481.712.602l13.39 4.576a1.52 1.52 0 0 0 1.157-2.814l-12.936-4.389L24.35 28.42a1.52 1.52 0 0 0-.896-.664L10.19 24.193a1.52 1.52 0 0 0-1.61.557v-2.178zm48.665 3.042v3.65h1.825v-3.65ZM6.755 28.046v3.65H8.58v-3.65zm48.665 3.042v3.65h1.825v-3.65ZM6.755 33.52v3.65H8.58v-3.65zm48.665 3.041v3.65h1.825v-3.65ZM6.755 38.996v3.65H8.58v-3.65zm48.665 3.041v3.65h1.825v-3.65zm-35.382.913c-3.454 0-6.287 2.833-6.287 6.287 0 3.076 2.248 5.654 5.179 6.183h-1.225v1.825h3.65V55.42h-.206c2.712-.5 4.777-2.796 5.055-5.59l.002-.002a1.52 1.52 0 0 0 0-1.18c-.314-3.168-2.922-5.698-6.168-5.698zM6.755 44.47v3.65H8.58v-3.65zm13.283 1.521a3.223 3.223 0 0 1 3.246 3.246 3.223 3.223 0 0 1-3.246 3.246 3.223 3.223 0 0 1-3.246-3.246 3.223 3.223 0 0 1 3.246-3.246zm35.382 1.52v2.738h-5.17v12.166h12.165V50.25h-5.17v-2.737ZM6.755 49.946v3.65H8.58v-3.65zm46.536 3.346h6.083v6.083H53.29ZM6.755 55.42v1.825h3.65V55.42H7.668Zm5.475 0v1.825h3.65V55.42zm10.95 0v1.825h3.65V55.42zm5.474 0v1.825h3.65V55.42zm5.475 0v1.825h3.65V55.42zm5.475 0v1.825h3.65V55.42zm5.475 0v1.825h3.65V55.42z"/>
</svg>
