<svg xmlns="http://www.w3.org/2000/svg" viewBox="0 0 64 64">
    <path fill="currentColor"
          d="M16.862 2.13 7.297 21.17a2.091 2.091 0 0 0-.193 1.288l4.107 24.166-7.618 13.15 3.619 2.096 7.997-13.804a2.091 2.091 0 0 0 .252-1.397l-4.119-24.235 9.256-18.428Zm40.876.255-1.25 2.49 2.668 1.341 1.25-2.49zm-2.593 5.16-2.68 5.337 2.668 1.341 2.682-5.338zm-4.022 8.007-2.682 5.338 2.67 1.34 2.681-5.337zm-18.67 5.83.055 6.984-11.118.087.056 7.242 11.12-.088.054 6.985 10.521-10.688zm18.927 2.817-2.945.5 1.001 5.89 2.945-.5zm1.502 8.835-2.945.5 1.001 5.89 2.945-.5zm1.502 8.834-2.945.5.74 4.355-.24.413 2.585 1.499.51-.881a1.494 1.494 0 0 0 .18-1zm-3.943 7.854-2.994 5.17 2.584 1.496 2.994-5.169zm-4.492 7.754-1.497 2.584 2.584 1.497 1.498-2.584z"/>
</svg>
