<svg xmlns="http://www.w3.org/2000/svg" viewBox="0 0 64 64">
    <path stroke="currentColor" fill="currentColor" stroke-width="2"
          d="M44.095 2.247a2.285 2.285 0 0 0-.135.04L12.025 12.762a2.285 2.285 0 0 0-1.497 1.588l-7.772 29.4a2.285 2.285 0 0 0 1.213 2.641L35.397 61.6a2.285 2.285 0 0 0 2.873-.754l22.64-32.582a2.285 2.285 0 0 0 .05-2.534L46.6 3.23a2.285 2.285 0 0 0-2.504-.982ZM43.7 7.182l12.203 19.12-5.167 1.76 1.052 3.09 2.031-.693L38.07 53.122l.01-1.375-3.262-.023-.034 4.5-27.13-13.127 6.975-26.38Zm3.946 21.932-6.18 2.105 1.052 3.09 6.18-2.105zm-9.27 3.157-2.329.793a1.632 1.632 0 0 0-1.105 1.534l-.03 4.068 3.265.024.02-2.91 1.232-.419zm-3.488 9.66-.047 6.529 3.264.023.048-6.528z"/>
</svg>
