<svg xmlns="http://www.w3.org/2000/svg" fill="currentColor" viewBox="0 0 64 64">
    <path d="M44.698 2.661a1.644 1.644 0 0 1 2.328 0l9.866 9.866a1.644 1.644 0 0 1 0 2.329L24.004 47.744a1.644 1.644 0 0 1-.552.362L7.008 54.683a1.644 1.644 0 0 1-2.138-2.138l6.578-16.444a1.644 1.644 0 0 1 .362-.552zm-3.089 7.742 7.542 7.541 4.252-4.252-7.541-7.541zm5.216 9.866-7.54-7.54-21.378 21.376v.964h1.644a1.644 1.644 0 0 1 1.645 1.644v1.645h1.644a1.644 1.644 0 0 1 1.645 1.644v1.644h.963zM14.724 37.29l-.35.348L9.35 50.204l12.566-5.025.349-.35a1.644 1.644 0 0 1-1.07-1.538v-1.645h-1.644a1.644 1.644 0 0 1-1.644-1.644v-1.644h-1.644a1.644 1.644 0 0 1-1.54-1.07"/>
    <path stroke="currentColor" stroke-width="5.107"
          d="M6.298 59.53c3.44-1.692 6.88-3.384 10.558-4.319s7.594-1.111 11.719-.298c4.125.814 8.459 2.617 13.483 2.655 5.023.038 10.737-1.689 16.45-3.415"/>
</svg>
