<svg xmlns="http://www.w3.org/2000/svg" viewBox="0 0 64 64">
    <path fill="currentColor"
          d="M1.717 38.645a2.675 2.668 79.7 0 0-.307 3.769L16.754 60.55a2.675 2.668 79.7 0 0 3.76.312l41.769-35.508a2.675 2.668 79.7 0 0 .307-3.769L47.246 3.45a2.675 2.668 79.7 0 0-3.76-.312zm5.486 2.352 37.702-32.05 11.892 14.056-2.717 2.31-4.458-5.269-2.033 1.729 4.457 5.269-3.11 2.643-4.457-5.268-2.034 1.728 4.458 5.27-3.106 2.64-4.458-5.27-2.033 1.73 4.457 5.268-3.11 2.644-6.194-7.32-2.033 1.728 6.193 7.32-3.11 2.645-4.457-5.269-2.034 1.729 4.458 5.268-3.106 2.64-4.458-5.268-2.033 1.73 4.457 5.268-3.11 2.643-4.457-5.268-2.034 1.729 4.458 5.268-2.098 1.783z"/>
</svg>
