<svg xmlns="http://www.w3.org/2000/svg" fill="currentColor" viewBox="0 0 64 64">
    <path d="M7.839 34.833c-7.104-9.763-5.332-23.33 4.2-30.266C21.572-2.369 35.03.123 42.13 9.882L56.166 29.17c7.098 9.755 5.329 23.325-4.204 30.262-9.533 6.936-22.989 4.444-30.09-5.315L7.841 34.836Zm5.063-25.476c-6.079 5.766-7.006 15.598-1.634 22.98l.778 1.07 12.002-8.732zm3.43-2.495L27.476 22.18l12.002-8.733-.781-1.073c-5.37-7.38-15.01-9.522-22.367-5.512m25.643 10.014L14.54 36.836l10.762 14.79c5.818 7.997 16.653 9.842 24.163 4.378 7.51-5.465 9.088-16.342 3.267-24.342z"/>
</svg>
