<svg xmlns="http://www.w3.org/2000/svg" viewBox="0 0 64 64">
    <g fill="currentColor">
        <path d="M79.85 4.386a1 1 0 0 0-.564.153L62.189 16.224a1 1 0 0 0-.352 1.315l8.425 18.717c.426.803 1.615.668 1.85-.209l2.932-10.871c7.894 2.498 13.883 8.977 15.514 17.152 1.698 8.512-.779 16.792-7.658 22.084a1 1 0 0 0-.184 1.402l3.474 9.41a1 1 0 0 0 1.402.182c9.579-7.368 14.159-22.987 11.794-34.838C97.087 29.048 88.584 19.8 77.39 16.416l3.394-10.77a1 1 0 0 0-.934-1.26ZM24.064 33.683a3.5 3.5 0 0 0-3.006 1.973l-20.71 42.8a3.5 3.5 0 0 0 2.63 4.985l75.015 11.275a3.5 3.5 0 0 0 3.846-4.55L67.573 46.672a3.5 3.5 0 0 0-2.431-2.293l-40.04-10.584a3.5 3.5 0 0 0-1.038-.113Zm2.039 7.617 35.412 9.363L73.419 86.95l-64.7-9.724z"
              stroke="currentColor" stroke-width="1"
              transform="matrix(.58504 0 0 .58504 2.748 3)"/>
        <path d="m41.797 11.014 1.558 4.752 9.502-3.118L51.3 7.896zm10.781 7.564 4.943.744 1.487-9.888-4.944-.745zM27.545 15.69l1.559 4.752 9.501-3.117-1.558-4.752zM13.29 20.365l1.559 4.75 9.502-3.117-1.559-4.75zm37.057 13.047 4.945.742 1.486-9.888-4.945-.743zM7.1 35.924l4.834 1.277 2.556-9.668-4.834-1.277Zm41.02 12.322 4.943.742 1.486-9.888-4.944-.743Zm-44.854 2.18L8.1 51.703l2.556-9.668-4.834-1.277Zm42.623 12.652 4.945.744 1.486-9.888-4.945-.745ZM.082 62.465l.303 1.969 1.025.92 2.295 1.109 2.178-4.5-.44-.213 1.38-5.213-4.835-1.277Zm8.123 6.176 9.002 4.355 2.178-4.5-9.002-4.355zm35.453 9.271 4.946.744 1.486-9.89-4.945-.743zm-21.951-2.738 9.002 4.355 2.178-4.5-9.002-4.355zm13.502 6.533 9.002 4.356 1.09-2.25 2.472.37.088-.583-2.293-.344.82-1.693-9.001-4.356z"
              stroke="currentColor" stroke-width="1"
              transform="matrix(.58504 0 0 .58504 2.748 3)"/>
    </g>
</svg>
