<svg xmlns="http://www.w3.org/2000/svg" viewBox="0 0 64 64">
    <g fill="currentColor" stroke="currentColor">
        <path d="m37.62 5.028-.337.284-4.039 4.068 3.547 3.523L39.875 9.8l2.846.596 1.025-4.893-4.176-.877Zm9.995 6.393 9.787 2.053 1.026-4.895-9.787-2.05zm14.68 3.078 9.787 2.05 1.025-4.892-9.787-2.053zm-39.623 5.522 3.547 3.523 7.049-7.094-3.547-3.523zm-10.57 10.642 3.546 3.524 7.047-7.094-3.547-3.524zM1.529 41.306l3.55 3.523 7.046-7.096-3.547-3.523Zm70.977 4.027 3.91 3.115 3.44-4.387-1.118-6.55zM.947 48.319l5.617 8.274 4.137-2.809-5.617-8.273Zm62.211 8.744 3.91 3.116 6.233-7.82-3.91-3.116zM9.373 60.73l5.62 8.272 4.134-2.809-5.617-8.271zm44.438 8.067 3.91 3.115 6.232-7.82-3.91-3.117zM17.8 73.138l5.617 8.273 4.137-2.808-5.617-8.274zm26.662 7.388 3.91 3.116 6.232-7.82-3.91-3.116zm-18.236 5.022 5.617 8.273 4.136-2.81-5.617-8.272zm8.888 6.709 3.91 3.117 6.233-7.822-3.91-3.115z"
              stroke-width="3"
              transform="translate(2.517 1.586) scale(.60827)"/>
        <path d="M22.672 20.02a3.5 3.5 0 0 0-2.506 1.034L-.514 41.872a3.5 3.5 0 0 0-.412 4.434L18 74.176a3.5 3.5 0 0 0 5.633.216l33.494-42.038a3.5 3.5 0 0 0-2.018-5.605l-31.742-6.654a3.5 3.5 0 0 0-.695-.074zm1.121 7.317 24.32 5.098-26.992 33.877L6.484 44.759Z"
              stroke-width="3"
              transform="translate(2.517 1.586) scale(.60827)"/>
        <path d="m78.734 7.668 2.61 11.396-18.145 4.154 2.705 11.816L84.05 30.88l2.609 11.396L100 21.011Z"
              stroke-width="3"
              transform="translate(1.586 1.586) scale(.60827)"/>
    </g>
</svg>
