<svg xmlns="http://www.w3.org/2000/svg" viewBox="0 0 64 64">
    <g fill="currentColor">
        <path d="m4.879 2.684-2.832 2.8L7.65 11.15l2.832-2.801Zm8.403 8.495-2.832 2.802 5.603 5.662 2.831-2.802zm8.404 8.494-2.832 2.8 5.602 5.664 2.832-2.802z"
        />
        <path d="M27.814 7.408a3.576 3.576 0 0 0-1.161-.176 3.2 3.2 0 0 0-.878.138l7.963 26.068L7.18 27.3c-.543 2.352 1.67 6.055 4.962 6.816l23.054 5.297 2.326 6.42c-2.27-.175-4.279 1.912-4.908 3.805-.535 1.698-.512 3.656.085 5.61.597 1.954 1.671 3.59 3.064 4.7 1.393 1.11 3.238 1.71 5.023 1.164 8.064-3.039 2.135-15.793.467-20.58 5.917 1.023 18.77 5.88 20.578-1.979.42-1.819-.306-3.616-1.509-4.929-1.203-1.313-2.909-2.27-4.9-2.73-1.99-.46-3.866-.547-5.602.303-1.737.849-3.768 2.642-3.468 4.73a6.17 6.17 0 0 0 .012.43l-6.563-1.794-6.88-22.632c-.702-2.297-3.445-3.99-5.108-4.523Zm26.824 26.88c1.36.315 2.472.99 3.116 1.692.644.703.795 1.307.684 1.79-.112.482-.511.956-1.399 1.305-.887.348-2.182.467-3.542.152-1.361-.314-2.472-.99-3.116-1.693-.644-.703-.797-1.304-.686-1.787.112-.482.513-.956 1.4-1.305a5.198 5.198 0 0 1 1.594-.327 6.98 6.98 0 0 1 1.949.173zM37.846 49.174c.333.069.71.25 1.13.585.746.594 1.497 1.654 1.905 2.99.408 1.335.379 2.635.092 3.545-.287.91-.731 1.34-1.205 1.484-.473.145-1.085.036-1.831-.558-.746-.594-1.496-1.655-1.904-2.99-.407-1.336-.378-2.637-.092-3.546.287-.91.732-1.342 1.206-1.486.118-.036.245-.057.38-.058.102 0 .207.011.319.034z"
        />
    </g>
</svg>
