<svg xmlns="http://www.w3.org/2000/svg" viewBox="0 0 64 64">
    <path fill="currentColor"
          d="m22.775 29.562 6.75-6.75-5.625-5.625-3.6 3.6-3.15-3.15 3.6-3.6-5.626-5.55-6.75 6.75zm25.95 26.101 6.75-6.825-5.624-5.625-3.6 3.6-3.15-3.15 3.6-3.6-5.55-5.55-6.75 6.75zm.6-46.126 5.25 5.25ZM16.7 59.039H5v-11.7l14.55-14.551L2 15.237l13.05-13.2 17.7 17.624L46.1 6.312q.676-.676 1.5-.976.826-.3 1.65-.3.826 0 1.65.3.826.3 1.5.976l5.326 5.325q.675.675.975 1.5.3.825.3 1.65t-.3 1.65q-.3.825-.975 1.5l-13.35 13.35L62 48.913l-13.125 13.05-17.551-17.55Zm-7.2-4.5h5.25l29.476-29.552-5.25-5.25L9.5 49.288Zm32.1-32.178-2.625-2.625 5.25 5.25Z"/>
</svg>