<svg xmlns="http://www.w3.org/2000/svg" viewBox="0 0 64 64">
    <path fill="currentColor"
          d="M58.709 17.724c-.3-.6-.601-.901-.902-1.502l-.3-.601c-.301-.601-.602-.902-.902-1.503l-.3-.601c-.301-.601-.602-.902-1.203-1.503l-.6-.901 8.414-9.317-13.825.3-13.824.301 1.502 13.524 1.503 13.524 9.617-10.819v.3l.3.602c.301.3.301.6.602.6l.3.602c0 .6 0 .901.3 1.202.903 2.104 1.804 4.208 2.105 6.311.6 4.208 0 8.716-1.804 12.623l-.6 1.202-.301.3-.902 1.503-.3.601c-.601.601-1.202 1.503-1.804 2.104-1.502 1.503-3.305 3.005-5.109 3.907-1.803 1.202-3.907 1.803-6.311 2.404-2.104.301-4.508.601-6.612.301-2.404-.3-4.508-.902-6.612-1.503-2.103-.901-3.907-2.104-5.71-3.606l-1.202-1.202-.601-.902-.601-.601c-.3-.3-.601-.601-.601-.902l-.902-1.202-.3-.3-.602-1.203c0-.3-.3-.3-.3-.6l-.902-1.503-.3-.601-.902-2.705q-.901-3.607-.901-7.213V27.04c0-.601 0-.901.3-1.202l.3-1.803.602-1.803c.901-2.405 2.103-4.509 3.606-6.612q2.254-3.156 5.41-5.41c.6-.3.901-1.202.3-1.803-.3-.3-.6-.601-.901-.601h-.601l-.3.3c-2.706 1.202-4.81 3.006-6.913 4.809-2.104 2.104-3.607 4.508-5.11 7.213-2.704 5.41-3.606 11.42-2.404 17.431.3 1.503.601 2.705.902 4.207l.902 2.405c.3.3.6.6.6 1.202l.602 1.202c0 .3.3.601.3.601l.902 1.503c.3.601.6.901.901 1.503l.301.6c.3.301.601.902.902 1.203l2.103 1.803c2.104 2.104 4.809 3.907 7.514 5.41q4.057 2.254 9.016 2.705c1.503.3 3.005.3 4.508.3 1.803 0 3.306 0 4.809-.3 3.005-.602 6.311-1.503 9.016-3.006l.6-.3c.602-.3.903-.601 1.504-.902l2.103-1.202c.601-.3.902-.601 1.203-.902l.6-.6a3.622 3.622 0 0 0 1.503-1.504l.3-.3c.902-.902 2.105-2.104 2.706-3.005l1.803-2.705 1.202-1.804c3.005-5.71 4.208-12.322 3.306-18.633-.601-3.306-1.503-6.612-3.005-9.317z"/>
</svg>
